<?xml version="1.0" standalone="no"?>
<!DOCTYPE svg PUBLIC "-//W3C//DTD SVG 20010904//EN"
 "http://www.w3.org/TR/2001/REC-SVG-20010904/DTD/svg10.dtd">
<svg version="1.0" xmlns="http://www.w3.org/2000/svg"
 width="600.000000pt" height="600.000000pt" viewBox="0 0 600.000000 600.000000"
 preserveAspectRatio="xMidYMid meet">
<metadata>
Created by potrace 1.14, written by Peter Selinger 2001-2017
</metadata>
<g transform="translate(0.000000,600.000000) scale(0.100000,-0.100000)"
fill="#000000" stroke="none">
<path d="M2256 5775 c-91 -25 -178 -76 -245 -142 -35 -35 -61 -66 -59 -69 3
-3 32 7 64 21 140 63 316 96 420 80 l48 -7 -71 -28 c-152 -59 -264 -131 -391
-254 l-82 -80 -113 -7 c-114 -8 -137 -12 -407 -74 -280 -65 -404 -88 -498 -94
l-92 -6 43 -55 c24 -30 52 -73 63 -95 12 -22 45 -60 75 -84 29 -24 59 -56 67
-70 62 -119 321 -368 456 -438 17 -9 25 -18 19 -20 -16 -6 -17 -25 -1 -41 15
-15 12 -93 -8 -232 -30 -213 -63 -347 -115 -468 -69 -160 -135 -359 -155 -467
-12 -64 -15 -122 -12 -201 5 -99 9 -117 38 -179 39 -81 110 -157 191 -203 71
-40 95 -42 41 -2 -65 47 -96 121 -113 267 -6 52 -7 109 -3 126 6 30 8 27 20
-33 27 -132 130 -292 218 -337 34 -18 158 -53 183 -53 10 1 2 7 -18 14 -53 19
-99 49 -144 97 l-40 41 51 -36 c67 -47 122 -67 214 -76 41 -4 95 -16 120 -26
56 -23 226 -27 239 -6 6 11 16 11 47 3 55 -15 146 -14 215 4 46 12 68 13 106
4 27 -6 72 -7 103 -4 60 8 60 8 2 -57 -28 -31 -195 -107 -248 -114 -20 -2 -48
-10 -62 -18 -15 -7 -57 -19 -93 -25 -80 -14 -318 -15 -353 -1 -18 7 -45 4 -96
-9 -38 -9 -68 -20 -65 -22 2 -3 -21 -20 -53 -39 -180 -107 -256 -173 -293
-255 -23 -53 -45 -179 -59 -340 -6 -71 -18 -152 -26 -179 -21 -72 -17 -165 11
-301 14 -66 25 -133 25 -150 0 -16 -15 -91 -34 -165 -41 -167 -42 -257 -3
-366 33 -91 47 -176 47 -290 0 -65 6 -107 21 -152 l21 -62 1339 0 1339 0 -11
26 c-5 15 -27 95 -49 178 -22 83 -51 185 -65 226 -25 74 -98 333 -129 463 -29
115 0 210 91 301 62 63 122 102 191 121 30 9 92 34 138 55 55 25 85 34 88 27
2 -7 5 2 5 18 0 17 -3 25 -7 19 -4 -6 -35 -25 -69 -43 l-62 -31 1 38 c0 20
-12 69 -26 108 -14 39 -26 80 -26 91 0 15 27 34 114 78 l113 58 36 -27 c20
-15 64 -63 98 -107 35 -43 64 -79 66 -79 2 0 -3 13 -11 28 -26 51 -107 142
-149 169 l-41 25 -48 -20 c-26 -11 -45 -16 -42 -10 4 6 1 9 -5 7 -7 -3 -12 -8
-11 -13 3 -17 -74 -53 -92 -44 -21 10 -23 27 -5 33 101 35 134 52 173 90 48
47 46 47 226 60 l76 6 31 -38 c17 -21 31 -41 31 -46 0 -18 103 -217 119 -229
14 -11 13 -10 -1 14 -10 14 -38 73 -63 130 -45 100 -103 178 -133 178 -18 0
-94 45 -154 90 -26 19 -67 47 -92 62 -25 15 -55 42 -66 60 -21 35 -26 102 -10
128 8 12 15 9 42 -17 33 -31 95 -63 152 -77 24 -6 176 -99 259 -158 12 -10 25
-57 47 -173 17 -88 44 -205 59 -260 31 -111 32 -106 -31 -190 -32 -43 -62 -67
-147 -116 -154 -90 -175 -104 -289 -193 -56 -45 -117 -92 -135 -105 -29 -22
-26 -23 18 -5 11 5 15 -1 15 -22 0 -67 232 -568 371 -804 l45 -75 100 -3 101
-3 33 103 c24 74 34 124 36 178 3 127 34 331 62 415 27 79 27 84 26 330 0 138
-5 275 -11 305 -19 97 -43 184 -64 228 -15 30 -19 53 -15 75 21 108 20 111
-21 183 -22 38 -55 104 -74 147 -24 55 -40 79 -56 83 -12 3 -25 16 -29 27 -16
52 -116 167 -171 196 -29 15 -44 14 -18 -2 78 -46 139 -119 182 -216 24 -54
24 -54 5 -74 -19 -19 -20 -19 -56 5 l-37 23 -2 77 c-2 60 -6 83 -23 105 -34
45 -63 38 -99 -24 -16 -29 -33 -52 -37 -53 -21 -1 -125 46 -169 76 -61 41 -76
42 -89 8 -17 -45 -11 -88 19 -136 23 -37 43 -53 95 -78 36 -17 66 -37 66 -44
0 -17 -57 -96 -70 -96 -5 0 -38 -22 -72 -50 -35 -28 -85 -57 -117 -68 -60 -20
-77 -46 -45 -69 10 -7 13 -13 7 -13 -7 0 -15 6 -20 12 -9 16 -53 270 -47 279
2 4 -9 53 -25 110 -16 57 -29 104 -28 105 1 0 34 13 72 28 71 27 58 28 -28 1
l-48 -14 -10 27 c-43 111 -59 156 -56 158 2 2 51 -12 110 -32 l106 -36 113 11
113 10 -109 -4 c-100 -4 -117 -2 -205 27 -53 17 -114 41 -136 54 -23 13 -56
23 -75 23 -19 -1 -72 11 -117 25 -75 24 -86 31 -126 81 -35 42 -46 65 -51 105
-4 29 -5 55 -2 57 3 3 31 7 64 8 164 7 300 96 421 274 84 123 157 306 181 451
26 160 29 157 26 -20 -4 -198 -22 -286 -78 -393 -37 -71 -125 -165 -183 -195
-22 -12 -33 -21 -25 -21 8 0 26 6 40 14 14 8 36 14 50 15 36 0 98 35 150 85
25 24 59 50 76 58 49 25 141 132 180 209 19 39 44 105 55 147 35 131 36 353 3
511 -10 44 13 2 51 -95 54 -140 75 -235 75 -345 0 -84 -3 -103 -26 -149 -17
-33 -41 -62 -64 -78 -37 -23 -59 -53 -41 -53 29 0 192 159 225 219 77 142 75
335 -6 495 -40 80 -69 122 -194 277 -119 149 -122 153 -171 291 -47 134 -137
332 -206 457 l-56 100 49 84 c82 143 160 341 160 407 0 12 8 34 19 48 35 51
61 111 61 144 0 18 11 65 24 103 13 39 22 71 21 73 -2 2 -16 -3 -33 -12 -56
-29 -169 -49 -652 -117 -118 -16 -243 -37 -276 -45 l-62 -15 -118 40 c-66 22
-162 48 -214 57 -117 21 -324 24 -445 5 l-90 -13 -53 36 c-30 20 -77 43 -105
51 -61 18 -184 18 -251 0z m2089 -277 c-59 -255 -161 -469 -247 -518 -15 -9
-15 -6 2 33 10 23 23 61 28 85 14 60 -4 55 -74 -20 l-57 -63 7 45 c29 181 160
414 295 527 36 29 68 53 72 53 3 0 -8 -64 -26 -142z m-1245 -224 c146 -182
245 -387 301 -619 11 -48 19 -88 17 -89 -2 -1 -38 -10 -81 -19 -42 -9 -107
-30 -143 -47 -66 -32 -134 -84 -134 -102 0 -15 94 -3 122 16 13 8 70 33 127
56 116 46 121 45 120 -25 0 -50 -19 -106 -39 -116 -8 -4 -37 -18 -64 -31 -55
-26 -131 -89 -147 -122 -6 -11 2 -6 17 13 37 46 132 105 202 127 31 10 50 20
41 22 -14 2 -13 12 8 84 12 44 23 86 23 94 0 15 87 31 100 18 5 -5 14 -51 21
-103 15 -114 32 -101 33 25 1 51 5 79 10 74 10 -10 -5 -244 -16 -255 -3 -3
-18 -1 -33 5 -31 12 -48 4 -25 -10 20 -13 -2 -13 -34 0 -34 13 -33 5 2 -15
l27 -15 -30 7 c-48 12 -137 7 -177 -10 -52 -22 -122 -89 -158 -153 -37 -67
-38 -75 -3 -32 33 40 46 51 95 83 46 31 52 31 37 4 -6 -13 -9 -48 -7 -84 3
-51 9 -69 36 -103 39 -49 81 -64 160 -59 76 5 124 34 151 91 35 71 23 177 -23
216 -17 13 -17 14 1 21 10 4 41 8 70 8 l51 1 8 -52 7 -53 13 45 c12 40 13 27
9 -125 -2 -93 -9 -192 -15 -218 -10 -41 -17 -51 -46 -63 -111 -46 -278 -69
-392 -54 -137 18 -182 43 -182 104 0 13 -11 37 -24 53 -31 37 -40 84 -26 128
6 19 10 43 8 52 -6 28 -37 -37 -45 -92 -5 -38 -9 -45 -24 -40 -49 16 -72 15
-104 -5 l-34 -21 -18 22 c-36 46 -81 89 -93 89 -7 0 3 -17 22 -38 40 -44 55
-100 37 -133 -7 -14 -9 -42 -5 -75 5 -47 3 -56 -20 -83 -35 -41 -166 -104
-284 -136 -94 -25 -249 -34 -307 -19 -46 13 -150 248 -138 312 6 34 6 34 27
15 12 -10 18 -12 13 -4 -4 8 -8 27 -7 42 0 16 -4 29 -9 29 -5 0 -9 7 -9 15 0
8 5 15 12 15 6 0 9 3 6 6 -4 3 -20 -2 -38 -11 -18 -9 -34 -14 -37 -12 -6 6 30
26 66 37 14 4 35 11 46 15 l20 7 -20 -18 c-16 -13 -16 -15 -3 -11 42 14 100
28 104 24 3 -2 0 -16 -6 -31 -26 -70 3 -162 68 -217 36 -29 40 -30 119 -27 44
2 79 6 76 11 -2 4 0 7 6 7 6 0 26 14 46 31 61 54 70 159 20 233 l-23 34 49
-14 c27 -8 66 -24 87 -36 l37 -20 -40 36 c-48 44 -119 82 -173 94 -46 11 -149
-3 -172 -22 -8 -7 -26 -19 -40 -26 l-25 -13 20 24 20 23 -27 -17 c-34 -21 -44
-22 -28 -2 8 9 9 15 2 15 -6 0 -14 -5 -17 -10 -4 -6 -30 -22 -58 -36 -29 -13
-43 -18 -33 -9 14 11 16 15 5 15 -17 -1 -108 -49 -94 -50 6 0 2 -5 -8 -11 -10
-6 -21 -8 -25 -5 -9 10 -31 157 -31 216 l-1 55 24 -58 c32 -78 51 -104 87
-123 38 -19 42 -16 24 19 -13 25 -4 40 10 17 7 -11 64 -14 89 -4 14 5 13 9 -4
32 -11 14 -19 27 -17 28 2 2 21 -5 42 -16 42 -21 95 -27 95 -10 0 6 -7 10 -15
10 -8 0 -21 12 -29 28 -18 36 -40 136 -33 153 3 8 6 2 6 -12 2 -54 33 -132 64
-160 30 -28 57 -38 57 -21 0 4 -6 14 -12 21 -25 24 144 6 207 -23 30 -14 55
-23 55 -20 0 3 -28 18 -61 33 -38 17 -57 31 -50 35 7 4 17 3 24 -2 36 -30 184
29 254 100 87 90 155 245 188 432 l15 81 -5 -100 c-7 -130 -36 -270 -74 -352
-36 -76 -38 -87 -10 -53 59 74 107 205 134 369 14 83 16 138 12 275 -6 176
-19 257 -61 377 -13 38 -20 69 -16 69 5 0 36 -34 70 -76z m1000 -225 c-12 -30
-35 -79 -52 -109 l-31 -55 44 43 c70 66 81 50 24 -35 -38 -56 -47 -83 -15 -44
11 13 20 19 20 13 0 -13 -49 -72 -60 -72 -5 0 -18 30 -30 66 -21 63 -22 67 -5
110 17 45 117 164 122 147 2 -6 -6 -35 -17 -64z m-2934 -40 c174 -72 340 -218
444 -393 l23 -38 -39 25 c-36 24 -115 57 -136 57 -14 0 10 -40 59 -98 41 -48
43 -51 17 -42 -15 6 -29 8 -32 6 -2 -3 -30 16 -61 41 -140 116 -210 197 -327
375 -80 122 -81 121 52 67z m2714 -39 c86 -61 90 -178 12 -352 -18 -40 -31
-58 -44 -58 -10 0 -18 -4 -18 -10 0 -5 -5 -10 -11 -10 -5 0 -8 4 -4 10 3 5
-14 14 -37 20 -79 21 -113 33 -148 55 -40 25 -100 90 -100 107 0 6 -3 8 -6 5
-4 -4 6 -26 21 -49 l28 -43 -32 30 c-17 16 -38 50 -47 75 l-14 45 5 -39 c2
-22 17 -58 33 -80 23 -33 52 -95 52 -112 0 -2 -21 -4 -48 -4 l-47 0 -3 83 c-1
45 -10 120 -21 167 -10 47 -17 87 -15 89 2 2 15 -20 28 -50 17 -36 25 -47 25
-32 1 41 42 75 101 84 34 5 58 5 66 -2 9 -7 18 1 35 30 40 72 121 89 189 41z
m-2315 -365 c22 -13 53 -36 68 -51 27 -25 28 -29 21 -88 -4 -33 -7 -67 -7 -73
0 -18 -11 -16 -38 8 -23 19 -23 20 -2 10 41 -20 35 -11 -18 29 -63 47 -84 76
-48 65 13 -4 42 -17 64 -28 37 -18 34 -14 -36 54 -42 41 -81 85 -88 97 -11 21
-10 21 16 11 16 -6 46 -21 68 -34z m2119 -34 c-4 -5 -91 47 -99 58 -3 5 19 -5
49 -22 29 -18 52 -34 50 -36z m71 -11 c25 -11 -1 -11 -35 0 -20 6 -21 8 -5 8
11 0 29 -3 40 -8z m39 -242 c5 -49 4 -58 -10 -58 -8 0 -12 5 -9 10 4 6 -5 10
-20 10 -15 0 -25 3 -23 8 2 4 12 31 23 59 22 59 29 54 39 -29z m-87 7 c-6 -19
-16 -35 -23 -35 -10 0 -7 10 7 35 12 19 22 35 24 35 2 0 -2 -16 -8 -35z m93
-82 c0 -5 -24 -7 -52 -5 -89 5 -97 9 -20 11 39 0 72 -2 72 -6z m-1360 -90 c0
-2 -9 -3 -20 -3 -17 0 -20 7 -20 42 l0 42 20 -39 c11 -22 20 -41 20 -42z m65
-2 c-2 -2 -11 -1 -20 2 -9 4 -15 19 -15 39 l1 33 19 -35 c10 -19 17 -37 15
-39z m1100 55 c25 -18 13 -46 -20 -46 -27 0 -41 20 -31 45 7 19 26 19 51 1z
m556 -222 c11 -41 17 -81 13 -99 -11 -54 -96 -203 -140 -246 l-44 -43 -23 22
c-28 27 -67 29 -67 5 0 -9 12 -29 27 -45 l26 -28 -36 -15 c-52 -22 -57 -20
-57 26 0 57 35 116 77 130 18 6 33 15 33 20 0 5 30 40 66 79 l66 70 -10 40
c-10 40 -6 48 16 30 7 -5 6 -3 -2 6 -12 14 -16 14 -46 -1 -17 -9 -34 -15 -36
-12 -9 9 16 55 40 75 25 19 26 25 9 72 -7 17 -5 42 4 80 5 22 9 19 35 -36 16
-34 38 -93 49 -130z m-754 142 c-8 -19 -37 -21 -37 -3 0 7 5 18 12 25 15 15
33 -1 25 -22z m133 18 c0 -17 -22 -14 -28 4 -2 7 3 12 12 12 9 0 16 -7 16 -16z
m-42 -62 c-2 -9 -11 -18 -21 -20 -19 -4 -32 20 -23 43 8 22 48 0 44 -23z m62
-51 c-7 -13 -7 -22 0 -26 15 -9 51 5 44 17 -4 6 -1 9 7 6 14 -5 21 -49 10 -66
-12 -17 -98 -52 -129 -52 -33 0 -81 18 -83 32 -5 25 -2 31 13 34 10 1 15 -3
12 -10 -3 -7 2 -13 11 -13 18 0 20 18 3 35 -9 9 -7 12 13 12 13 0 42 11 64 25
49 30 48 30 35 6z m504 -6 c-4 -8 -8 -15 -10 -15 -2 0 -4 7 -4 15 0 8 4 15 10
15 5 0 7 -7 4 -15z m-1503 -15 c29 -16 25 -50 -6 -50 -27 0 -41 20 -31 45 6
18 11 18 37 5z m-191 -80 c0 -18 -23 -34 -34 -23 -11 11 -6 41 7 46 17 6 27
-1 27 -23z m151 15 c-1 -15 -24 -12 -29 3 -3 9 2 13 12 10 10 -1 17 -7 17 -13z
m-33 -39 c2 -10 -1 -23 -7 -29 -16 -16 -44 14 -35 37 8 22 38 17 42 -8z m-392
-11 c8 -21 -6 -41 -17 -24 -12 19 -11 39 1 39 6 0 13 -7 16 -15z m1978 -1 c13
-33 4 -51 -48 -103 -50 -49 -54 -51 -59 -30 -3 13 2 37 13 58 l18 36 11 -25
c5 -14 10 -19 10 -12 1 7 -4 22 -9 32 -8 15 -6 24 10 40 24 24 46 26 54 4z
m-1006 -36 c6 -6 12 -19 12 -28 0 -23 69 -83 129 -112 42 -21 60 -23 216 -23
171 0 197 4 317 50 15 6 15 3 2 -41 -24 -82 -64 -158 -102 -196 -46 -48 -29
-49 27 -2 47 40 65 38 35 -4 -11 -15 -24 -33 -29 -41 -11 -19 56 21 113 67 47
39 48 37 27 -62 -30 -143 -116 -278 -255 -401 -86 -77 -349 -251 -388 -257
-33 -5 -202 27 -331 62 -183 51 -329 129 -422 227 -54 56 -76 87 -134 186
l-27 48 48 -6 c27 -3 69 -2 94 3 25 6 35 10 22 11 -38 2 -78 28 -126 83 -25
29 -46 55 -46 58 0 3 34 5 76 4 87 0 146 9 262 43 117 34 223 84 260 124 39
41 72 109 72 146 0 33 7 43 38 65 25 17 87 14 110 -4z m-530 -30 c-2 -7 4 -13
12 -13 8 0 14 6 12 13 -1 8 5 12 15 10 11 -2 19 -14 21 -30 4 -33 -43 -71
-110 -89 -40 -11 -49 -10 -72 4 -14 10 -26 26 -26 37 0 25 16 26 29 3 7 -12
10 -13 11 -4 0 7 6 11 15 7 8 -3 15 0 16 7 0 9 2 9 6 0 2 -7 9 -13 14 -13 4 0
6 7 3 15 -4 8 -19 15 -34 15 -59 0 -45 28 20 41 55 11 70 10 68 -3z m-649
-183 c0 -5 -6 1 -14 15 -8 14 -14 30 -14 35 0 6 6 -1 14 -15 8 -14 14 -29 14
-35z m51 -66 c20 -27 20 -27 0 -22 -18 5 -50 49 -50 69 0 10 29 -16 50 -47z
m2040 4 c52 -53 85 -127 101 -228 12 -74 4 -126 -29 -188 -30 -56 -69 -82
-104 -68 -22 9 -22 10 5 10 38 1 83 50 98 104 21 79 8 165 -39 260 -23 47 -56
97 -72 111 -17 13 -30 29 -30 35 0 22 24 10 70 -36z m-2078 -61 c5 -2 15 -17
23 -33 9 -17 36 -39 65 -54 57 -29 68 -31 46 -10 -8 9 -13 22 -10 30 5 12 11
11 34 -8 32 -25 40 -49 13 -41 -12 4 -9 -1 7 -15 25 -21 38 -24 75 -22 37 2
79 -34 102 -87 l21 -52 -49 0 c-27 0 -49 2 -49 5 0 4 7 19 15 36 28 53 -13 71
-43 19 -9 -16 -21 -30 -25 -30 -28 0 -139 72 -202 131 -78 75 -95 106 -95 183
l0 39 32 -44 c17 -24 35 -46 40 -47z m95 -14 c23 -21 32 -58 14 -58 -11 0 -61
58 -61 71 0 16 23 10 47 -13z m193 -213 c0 -4 -8 -20 -17 -38 -14 -26 -18 -57
-18 -157 0 -112 2 -130 24 -170 31 -59 77 -108 111 -115 28 -6 94 14 73 22 -9
3 -6 13 9 34 16 21 23 48 26 94 2 36 9 65 14 65 13 0 1 -90 -21 -155 -13 -39
-24 -54 -52 -67 -68 -34 -129 5 -190 122 -45 87 -25 370 27 370 8 0 14 -2 14
-5z m1706 -133 c21 -18 33 -32 26 -32 -32 0 -130 128 -116 151 3 6 16 -12 29
-38 12 -27 40 -64 61 -81z m-1906 -424 c84 -86 86 -89 67 -106 -18 -16 -20
-15 -54 23 -58 66 -125 174 -160 258 -18 43 -33 82 -33 85 1 4 22 -33 47 -82
36 -68 68 -111 133 -178z m2023 170 c-40 -74 -125 -162 -185 -192 -76 -38 -91
-32 -28 10 65 43 182 155 211 202 32 50 33 38 2 -20z m-366 -123 c2 -150 30
-326 63 -403 12 -29 25 -51 27 -48 2 2 -7 41 -21 86 -35 108 -33 122 9 67 36
-48 57 -58 192 -97 81 -23 77 -17 111 -167 l19 -82 -31 -10 c-49 -16 -156 -39
-216 -45 -30 -4 -62 -11 -70 -17 -11 -7 -5 -8 20 -4 19 3 67 10 105 16 39 5
96 17 129 25 32 8 62 12 66 7 5 -4 16 -46 25 -93 9 -47 23 -107 31 -134 7 -27
17 -91 20 -143 l7 -94 -24 5 c-13 3 -78 13 -144 21 -481 63 -1055 184 -1345
283 -118 40 -223 82 -218 88 2 1 46 -4 98 -11 52 -7 190 -21 305 -30 151 -11
228 -21 273 -36 35 -12 65 -19 68 -16 3 2 -33 16 -78 30 -68 22 -124 29 -305
42 -121 9 -259 22 -305 28 -80 12 -83 13 -81 38 2 40 109 258 130 265 10 4 59
24 108 46 94 41 133 71 167 126 11 17 27 32 35 32 13 0 14 -14 9 -97 -4 -54
-9 -114 -11 -133 -4 -27 -1 -24 10 15 9 31 15 98 16 175 2 132 13 181 47 199
15 8 44 -3 153 -58 173 -88 199 -97 237 -77 16 8 67 58 112 111 99 115 219
227 240 223 12 -3 15 -26 17 -133z m-1531 -155 c6 -6 39 -26 75 -46 l64 -35
-61 3 c-41 3 -72 11 -98 27 -35 22 -36 24 -20 42 19 22 26 23 40 9z m244 -401
c-71 -131 -68 -129 -133 -89 -30 18 -92 60 -138 94 l-84 61 176 12 c97 6 187
13 200 15 13 2 25 3 27 2 2 -1 -20 -44 -48 -95z m2383 -67 c17 -30 26 -126 13
-139 -3 -3 -32 11 -65 32 l-61 36 20 39 c23 46 48 72 64 67 6 -2 19 -18 29
-35z m-118 -283 l30 -12 -40 -8 c-22 -4 -54 -8 -72 -8 l-31 -1 21 39 c22 39
22 40 42 21 11 -10 34 -24 50 -31z m-431 -435 c-27 -46 -27 -47 -8 -61 11 -9
30 -12 47 -9 40 8 30 -13 -13 -29 -19 -7 -57 -20 -83 -30 -27 -9 -69 -33 -94
-52 -25 -19 -47 -32 -50 -29 -3 2 1 22 8 43 8 24 47 73 111 140 54 56 99 108
99 115 1 7 4 1 6 -14 3 -18 -6 -44 -23 -74z m66 -31 c0 -15 -44 -28 -59 -18
-7 4 -3 21 11 48 l21 42 13 -30 c7 -16 13 -36 14 -42z"/>
<path d="M3690 3959 c-57 -48 -128 -79 -184 -79 -42 -1 -48 -3 -32 -12 42 -24
207 43 244 100 19 29 14 27 -28 -9z"/>
<path d="M3245 3900 c-3 -5 -2 -10 4 -10 5 0 13 5 16 10 3 6 2 10 -4 10 -5 0
-13 -4 -16 -10z"/>
<path d="M3300 3889 c0 -5 5 -7 10 -4 6 3 10 8 10 11 0 2 -4 4 -10 4 -5 0 -10
-5 -10 -11z"/>
<path d="M3347 3893 c-4 -3 -7 -11 -7 -17 0 -6 5 -5 12 2 6 6 9 14 7 17 -3 3
-9 2 -12 -2z"/>
<path d="M2700 3800 c0 -5 5 -10 11 -10 5 0 7 5 4 10 -3 6 -8 10 -11 10 -2 0
-4 -4 -4 -10z"/>
<path d="M2245 3708 c53 -39 191 -51 250 -22 17 8 21 11 10 8 -68 -23 -162
-15 -265 23 -8 3 -6 -1 5 -9z"/>
<path d="M3524 3990 c-28 -11 -35 -23 -23 -40 7 -12 9 -9 9 10 0 14 4 21 8 15
12 -16 50 -13 47 4 -2 19 -14 22 -41 11z"/>
<path d="M3472 3955 c0 -16 2 -22 5 -12 2 9 2 23 0 30 -3 6 -5 -1 -5 -18z"/>
<path d="M2977 3705 c3 -40 14 -87 25 -109 l20 -39 -24 6 c-22 6 -22 5 -4 -8
11 -8 24 -15 29 -15 10 0 9 5 -17 80 -9 25 -20 70 -25 100 -9 54 -9 53 -4 -15z"/>
<path d="M2914 3611 c7 -11 46 -35 46 -28 0 3 -12 12 -26 22 -15 9 -23 12 -20
6z"/>
<path d="M3105 3400 c-111 -12 -235 -53 -306 -101 -18 -13 -29 -15 -36 -8 -8
8 -13 7 -18 -1 -4 -7 -3 -15 2 -19 5 -3 19 -22 30 -41 58 -95 118 -123 263
-121 140 1 238 31 326 98 49 37 102 180 74 198 -7 4 -15 3 -19 -2 -4 -6 -29
-7 -66 -2 -73 9 -157 9 -250 -1z m274 -16 c16 -14 -202 -71 -365 -95 -140 -21
-204 -21 -204 0 0 11 109 59 174 78 68 20 213 31 311 25 44 -3 82 -6 84 -8z
m-40 -115 c17 -6 31 -17 31 -24 0 -16 -101 -79 -161 -101 -89 -31 -319 -26
-319 7 0 44 61 79 138 79 48 0 84 6 207 34 33 8 63 15 66 15 3 1 20 -4 38 -10z"/>
<path d="M2525 3800 c-3 -5 1 -10 10 -10 9 0 13 5 10 10 -3 6 -8 10 -10 10 -2
0 -7 -4 -10 -10z"/>
<path d="M2500 3781 c0 -5 5 -13 10 -16 6 -3 10 -2 10 4 0 5 -4 13 -10 16 -5
3 -10 2 -10 -4z"/>
<path d="M3582 2780 c0 -19 2 -27 5 -17 2 9 2 25 0 35 -3 9 -5 1 -5 -18z"/>
<path d="M3561 2603 c-7 -84 -26 -196 -47 -287 -19 -81 -33 -150 -31 -152 6
-6 65 223 76 296 12 77 25 280 19 280 -3 0 -10 -62 -17 -137z"/>
<path d="M2911 2624 c0 -11 3 -14 6 -6 3 7 2 16 -1 19 -3 4 -6 -2 -5 -13z"/>
<path d="M2921 2590 c0 -8 4 -24 9 -35 5 -13 9 -14 9 -5 0 8 -4 24 -9 35 -5
13 -9 14 -9 5z"/>
<path d="M2942 2520 c0 -8 6 -31 13 -50 7 -19 13 -28 13 -20 0 8 -6 31 -13 50
-7 19 -13 28 -13 20z"/>
<path d="M2970 2421 c0 -27 80 -183 140 -271 34 -49 64 -90 67 -90 6 0 0 10
-84 136 -29 44 -69 116 -88 160 -19 43 -35 73 -35 65z"/>
<path d="M3615 2029 c-38 -16 -74 -34 -80 -40 -5 -6 26 5 70 24 44 19 87 36
95 40 13 5 13 5 0 5 -8 0 -46 -13 -85 -29z"/>
<path d="M3402 1889 c-32 -38 -73 -52 -87 -29 -3 5 -20 19 -38 31 l-32 22 30
-32 c43 -47 61 -55 96 -41 26 11 77 75 68 85 -3 2 -19 -14 -37 -36z"/>
<path d="M4462 2484 c-43 -30 -27 -78 56 -166 l35 -37 27 27 c14 15 43 41 63
58 78 66 13 156 -67 93 -21 -16 -26 -17 -26 -5 0 15 -36 46 -55 46 -6 0 -21
-7 -33 -16z"/>
<path d="M4625 2290 c27 -12 43 -12 25 0 -8 5 -22 9 -30 9 -10 0 -8 -3 5 -9z"/>
<path d="M4525 1811 c-40 -7 -149 -63 -162 -84 -3 -6 9 -1 28 10 19 12 50 30
69 42 22 13 52 21 82 21 45 0 48 -2 105 -68 32 -37 71 -83 86 -102 21 -25 25
-28 16 -10 -27 57 -158 203 -178 199 -3 -1 -24 -4 -46 -8z"/>
<path d="M4374 1532 c4 -41 36 -92 58 -92 5 0 -2 10 -17 23 -15 13 -29 40 -35
67 l-9 45 3 -43z"/>
<path d="M4795 1540 c3 -5 20 -19 38 -31 l32 -22 -29 31 c-28 30 -55 44 -41
22z"/>
<path d="M4283 1516 c15 -14 38 -26 50 -25 15 0 17 2 7 6 -8 3 -31 14 -50 25
l-35 20 28 -26z"/>
<path d="M4699 1459 c13 -11 26 -17 29 -14 7 6 -29 34 -43 34 -5 0 1 -9 14
-20z"/>
<path d="M3982 725 c0 -16 2 -22 5 -12 2 9 2 23 0 30 -3 6 -5 -1 -5 -18z"/>
<path d="M3985 645 c4 -29 21 -71 42 -104 20 -31 45 -74 55 -96 17 -34 18 -36
13 -10 -4 17 -26 62 -51 101 -30 50 -44 83 -44 107 0 20 -5 39 -11 43 -9 5
-10 -6 -4 -41z"/>
</g>
</svg>
